<?xml version="1.0" encoding="UTF-8" standalone="no"?>
<svg
   xmlns:dc="http://purl.org/dc/elements/1.1/"
   xmlns:cc="http://web.resource.org/cc/"
   xmlns:rdf="http://www.w3.org/1999/02/22-rdf-syntax-ns#"
   xmlns:svg="http://www.w3.org/2000/svg"
   xmlns="http://www.w3.org/2000/svg"
   xmlns:sodipodi="http://sodipodi.sourceforge.net/DTD/sodipodi-0.dtd"
   xmlns:inkscape="http://www.inkscape.org/namespaces/inkscape"
   xml:space="preserve"
   version="1.1"
   overflow="visible"
   viewBox="0 0 94.332 101.883"
   id="svg2"
   sodipodi:version="0.32"
   inkscape:version="0.45"
   width="210mm"
   height="297mm"
   sodipodi:docname="d.svg"
   sodipodi:docbase="/home/jl/promotion/dl-learner-svn/trunk/resources/logos"
   inkscape:output_extension="org.inkscape.output.svg.inkscape"
   sodipodi:modified="true"><metadata
   id="metadata27"><rdf:RDF><cc:Work
       rdf:about=""><dc:format>image/svg+xml</dc:format><dc:type
         rdf:resource="http://purl.org/dc/dcmitype/StillImage" /></cc:Work></rdf:RDF></metadata><defs
   id="defs25" /><sodipodi:namedview
   inkscape:window-height="951"
   inkscape:window-width="1280"
   inkscape:pageshadow="2"
   inkscape:pageopacity="0.0"
   guidetolerance="10.0"
   gridtolerance="10.0"
   objecttolerance="10.0"
   borderopacity="1.0"
   bordercolor="#666666"
   pagecolor="#ffffff"
   id="base"
   inkscape:zoom="0.71838385"
   inkscape:cx="372.04724"
   inkscape:cy="562.51459"
   inkscape:window-x="0"
   inkscape:window-y="0"
   inkscape:current-layer="svg2" />
  <g
   shape-rendering="geometricPrecision"
   text-rendering="geometricPrecision"
   image-rendering="optimizeQuality"
   id="g4"
   transform="matrix(-1,0,0,1,94.331028,0)">
    <path
   d="M 84.45,66.836 C 83.814,66.499 83.166,66.212 82.514,65.957 L 82.98,65.919 C 82.98,65.919 78.829,64.081 78.466,50.739 C 78.107,37.395 82.423,35.119 82.423,35.119 L 81.803,35.146 C 85.064,33.473 87.869,30.83 89.72,27.342 C 94.543,18.27 91.092,7.001 82.018,2.177 C 72.94,-2.641 61.674,0.802 56.854,9.883 C 54.872,13.608 53.956057,18.052943 54.582057,21.918943 L 59.6642,6.5928717 C 59.6642,6.5928717 52.286572,7.5524999 40.935572,14.5985 C 29.586572,21.6485 18.819486,35.256229 18.819486,35.256229 L 29.910243,40.324486 C 29.585243,40.123486 26.803643,37.624357 26.464643,37.447357 C 17.386643,32.623357 7,35.188 2.178,44.266 C -2.642,53.343 0.806,64.607 9.881,69.433 C 16.647,73.024 22.683814,68.493571 28.304814,63.989571 L 20.418072,69.166771 C 20.418072,69.166771 24.726543,76.532528 36.634543,82.925528 C 46.034543,87.969528 64.195328,95.560599 62.0802,90.889157 C 61.8342,97.782157 76.015486,101.54314 68.2213,98.4667 C 77.2963,103.2917 87.33,101.077 92.15,92.001 C 96.974,82.926 93.528,71.656 84.45,66.836 z M 60.289514,76.870271 C 58.785514,77.402271 52.017914,78.873628 42.971914,74.022628 C 33.174914,68.762628 28.015014,60.309786 31.507914,57.931957 C 32.705743,52.626058 31.910857,50.676114 31.461386,48.588699 L 28.874315,41.619842 C 28.874315,41.619842 29.311614,36.287015 40.521614,29.326015 C 50.554614,23.098015 59.880343,26.984086 62.141114,33.132643 C 64.391782,34.943023 65.195647,35.359039 68.025,36.466 C 69.405,37.78 71.945,41.511 72.209,51.32 C 72.479,61.203 69.575,65.014 67.992,66.362 C 66.362,67.1 61.659514,75.673271 60.289514,76.870271 z "
   id="path6"
   style="fill:#0c479c"
   sodipodi:nodetypes="ccccccccccccccccccccccccccccccccccc" />
    <g
   id="g8">
      <path
   d="M 62.239,8.1 C 56.824,14.023 56.71,22.736 61.927,27.666 C 59.348,25.183 59.404,20.015 62.01,15.069 C 62.345,14.626 63.316,13.579 64.735,14.055 C 64.878,14.104 64.972,14.117 65.027,14.108 C 65.348,14.177 65.677,14.218 66.017,14.203 C 68.172,14.105 69.839,12.282 69.742,10.126 C 69.698,9.159 69.297,8.303 68.677,7.646 C 73.679,4.369 79.419,3.994 81.771,6.142 L 81.861,6.148 C 76.488,1.242 67.705,2.119 62.239,8.1 z "
   id="path10"
   style="fill:#ffffff" />
    </g>
    <g
   id="g12">
      <path
   d="M 7.632,62.845 C 7.586,62.798 7.539,62.743 7.491,62.697 C 7.521,62.728 7.55,62.766 7.586,62.799 L 7.632,62.845 z "
   id="path14"
   style="fill:#ffffff" />
      <path
   d="M 7.805,43.13 C 2.389,49.054 2.276,57.765 7.492,62.696 C 4.914,60.212 4.969,55.044 7.575,50.098 C 7.911,49.654 8.883,48.608 10.302,49.084 C 10.443,49.133 10.538,49.145 10.594,49.138 C 10.915,49.207 11.245,49.248 11.584,49.233 C 13.74,49.134 15.406,47.311 15.309,45.157 C 15.264,44.19 14.864,43.333 14.246,42.677 C 19.245,39.401 24.986,39.023 27.338,41.172 L 27.427,41.18 C 22.054,36.271 13.269,37.147 7.805,43.13 z "
   id="path16"
   style="fill:#ffffff" />
    </g>
    <g
   id="g18">
      <path
   d="M 65.256,92.504 C 65.209,92.456 65.162,92.402 65.115,92.356 C 65.144,92.387 65.174,92.425 65.209,92.457 L 65.256,92.504 z "
   id="path20"
   style="fill:#ffffff" />
      <path
   d="M 65.428,72.786 C 60.012,78.712 59.899,87.425 65.115,92.355 C 62.535,89.872 62.592,84.702 65.197,79.758 C 65.533,79.313 66.504,78.268 67.924,78.744 C 68.067,78.791 68.159,78.805 68.216,78.797 C 68.536,78.866 68.867,78.907 69.206,78.893 C 71.36,78.793 73.026,76.969 72.929,74.813 C 72.885,73.847 72.484,72.991 71.866,72.334 C 76.866,69.059 82.605,68.682 84.959,70.83 L 85.047,70.837 C 79.677,65.93 70.891,66.807 65.428,72.786 z "
   id="path22"
   style="fill:#ffffff" />
    </g>
  </g>
</svg>