<?xml version="1.0" encoding="UTF-8" standalone="no"?>
<svg
   xmlns:dc="http://purl.org/dc/elements/1.1/"
   xmlns:cc="http://creativecommons.org/ns#"
   xmlns:rdf="http://www.w3.org/1999/02/22-rdf-syntax-ns#"
   xmlns:svg="http://www.w3.org/2000/svg"
   xmlns="http://www.w3.org/2000/svg"
   xmlns:sodipodi="http://sodipodi.sourceforge.net/DTD/sodipodi-0.dtd"
   xmlns:inkscape="http://www.inkscape.org/namespaces/inkscape"
   xml:space="preserve"
   version="1.1"
   overflow="visible"
   viewBox="0 0 101.41938 77.450902"
   id="svg2"
   sodipodi:version="0.32"
   inkscape:version="0.48.4 r9939"
   width="800"
   height="800"
   sodipodi:docname="D.svg"
   inkscape:output_extension="org.inkscape.output.svg.inkscape"
   sodipodi:modified="true"
   style="overflow:visible"><metadata
     id="metadata27"><rdf:RDF><cc:Work
         rdf:about=""><dc:format>image/svg+xml</dc:format><dc:type
           rdf:resource="http://purl.org/dc/dcmitype/StillImage" /><dc:title></dc:title></cc:Work></rdf:RDF></metadata><defs
     id="defs25" /><sodipodi:namedview
     inkscape:window-height="951"
     inkscape:window-width="1280"
     inkscape:pageshadow="2"
     inkscape:pageopacity="0.0"
     guidetolerance="10.0"
     gridtolerance="10.0"
     objecttolerance="10.0"
     borderopacity="1.0"
     bordercolor="#666666"
     pagecolor="#ffffff"
     id="base"
     inkscape:zoom="0.71838385"
     inkscape:cx="372.04637"
     inkscape:cy="375.15519"
     inkscape:window-x="0"
     inkscape:window-y="0"
     inkscape:current-layer="svg2"
     showgrid="false"
     fit-margin-top="0"
     fit-margin-left="0"
     fit-margin-right="0"
     fit-margin-bottom="0"
     inkscape:window-maximized="0" /><g
     shape-rendering="geometricPrecision"
     text-rendering="geometricPrecision"
     image-rendering="optimizeQuality"
     id="g4"
     transform="matrix(-1,0,0,1,97.373494,-11.749858)"><path
       d="m 84.45,66.836 c -0.636,-0.337 -1.284,-0.624 -1.936,-0.879 l 0.466,-0.038 c 0,0 -4.151,-1.838 -4.514,-15.18 -0.359,-13.344 3.957,-15.62 3.957,-15.62 l -0.62,0.027 C 85.064,33.473 87.869,30.83 89.72,27.342 94.543,18.27 91.092,7.001 82.018,2.177 72.94,-2.641 61.674,0.802 56.854,9.883 54.872,13.608 53.956057,18.052943 54.582057,21.918943 L 59.6642,6.5928717 c 0,0 -7.377628,0.9596282 -18.728628,8.0056283 -11.349,7.05 -22.116086,20.657729 -22.116086,20.657729 l 11.090757,5.068257 c -0.325,-0.201 -3.1066,-2.700129 -3.4456,-2.877129 C 17.386643,32.623357 7,35.188 2.178,44.266 c -4.82,9.077 -1.372,20.341 7.703,25.167 6.766,3.591 12.802814,-0.939429 18.423814,-5.443429 l -7.886742,5.1772 c 0,0 4.308471,7.365757 16.216471,13.758757 9.4,5.044 27.560785,12.635071 25.445657,7.963629 -0.246,6.893 13.935286,10.653983 6.1411,7.577543 9.075,4.825 19.1087,2.6103 23.9287,-6.4657 4.824,-9.075 1.378,-20.345 -7.7,-25.165 z M 60.289514,76.870271 c -1.504,0.532 -8.2716,2.003357 -17.3176,-2.847643 -9.797,-5.26 -14.9569,-13.712842 -11.464,-16.090671 1.197829,-5.305899 0.402943,-7.255843 -0.04653,-9.343258 l -2.587071,-6.968857 c 0,0 0.437299,-5.332827 11.647299,-12.293827 10.033,-6.228 19.358729,-2.341929 21.6195,3.806628 2.250668,1.81038 3.054533,2.226396 5.883886,3.333357 1.38,1.314 3.92,5.045 4.184,14.854 0.27,9.883 -2.634,13.694 -4.217,15.042 -1.63,0.738 -6.332486,9.311271 -7.702486,10.508271 z"
       id="path6"
       style="fill:#0c479c"
       sodipodi:nodetypes="ccccccccccccccccccccccccccccccccccc"
       inkscape:connector-curvature="0" /><g
       id="g8"><path
         d="m 62.239,8.1 c -5.415,5.923 -5.529,14.636 -0.312,19.566 -2.579,-2.483 -2.523,-7.651 0.083,-12.597 0.335,-0.443 1.306,-1.49 2.725,-1.014 0.143,0.049 0.237,0.062 0.292,0.053 0.321,0.069 0.65,0.11 0.99,0.095 2.155,-0.098 3.822,-1.921 3.725,-4.077 C 69.698,9.159 69.297,8.303 68.677,7.646 73.679,4.369 79.419,3.994 81.771,6.142 l 0.09,0.006 C 76.488,1.242 67.705,2.119 62.239,8.1 z"
         id="path10"
         style="fill:#ffffff"
         inkscape:connector-curvature="0" /></g><g
       id="g12"><path
         d="M 7.632,62.845 C 7.586,62.798 7.539,62.743 7.491,62.697 c 0.03,0.031 0.059,0.069 0.095,0.102 l 0.046,0.046 z"
         id="path14"
         style="fill:#ffffff"
         inkscape:connector-curvature="0" /><path
         d="M 7.805,43.13 C 2.389,49.054 2.276,57.765 7.492,62.696 4.914,60.212 4.969,55.044 7.575,50.098 c 0.336,-0.444 1.308,-1.49 2.727,-1.014 0.141,0.049 0.236,0.061 0.292,0.054 0.321,0.069 0.651,0.11 0.99,0.095 2.156,-0.099 3.822,-1.922 3.725,-4.076 -0.045,-0.967 -0.445,-1.824 -1.063,-2.48 4.999,-3.276 10.74,-3.654 13.092,-1.505 l 0.089,0.008 C 22.054,36.271 13.269,37.147 7.805,43.13 z"
         id="path16"
         style="fill:#ffffff"
         inkscape:connector-curvature="0" /></g><g
       id="g18"><path
         d="m 65.256,92.504 c -0.047,-0.048 -0.094,-0.102 -0.141,-0.148 0.029,0.031 0.059,0.069 0.094,0.101 l 0.047,0.047 z"
         id="path20"
         style="fill:#ffffff"
         inkscape:connector-curvature="0" /><path
         d="m 65.428,72.786 c -5.416,5.926 -5.529,14.639 -0.313,19.569 -2.58,-2.483 -2.523,-7.653 0.082,-12.597 0.336,-0.445 1.307,-1.49 2.727,-1.014 0.143,0.047 0.235,0.061 0.292,0.053 0.32,0.069 0.651,0.11 0.99,0.096 2.154,-0.1 3.82,-1.924 3.723,-4.08 -0.044,-0.966 -0.445,-1.822 -1.063,-2.479 5,-3.275 10.739,-3.652 13.093,-1.504 l 0.088,0.007 c -5.37,-4.907 -14.156,-4.03 -19.619,1.949 z"
         id="path22"
         style="fill:#ffffff"
         inkscape:connector-curvature="0" /></g></g></svg>