<?xml version="1.0" encoding="UTF-8" standalone="no"?>
<!-- Generator: Adobe Illustrator 12.0.1, SVG Export Plug-In . SVG Version: 6.00 Build 51448)  -->
<svg
   xmlns:dc="http://purl.org/dc/elements/1.1/"
   xmlns:cc="http://web.resource.org/cc/"
   xmlns:rdf="http://www.w3.org/1999/02/22-rdf-syntax-ns#"
   xmlns:svg="http://www.w3.org/2000/svg"
   xmlns="http://www.w3.org/2000/svg"
   xmlns:xlink="http://www.w3.org/1999/xlink"
   xmlns:sodipodi="http://sodipodi.sourceforge.net/DTD/sodipodi-0.dtd"
   xmlns:inkscape="http://www.inkscape.org/namespaces/inkscape"
   version="1.1"
   id="Layer_1"
   width="262.551"
   height="162.048"
   viewBox="0 0 262.551 162.048"
   overflow="visible"
   enable-background="new 0 0 262.551 162.048"
   xml:space="preserve"
   sodipodi:version="0.32"
   inkscape:version="0.45.1"
   sodipodi:docname="dbpedia_navigator.svg"
   sodipodi:docbase="/home/jl/promotion/dl-learner-svn/trunk/resources/logos"
   inkscape:output_extension="org.inkscape.output.svg.inkscape"
   inkscape:export-filename="/home/jl/promotion/dl-learner-svn/trunk/resources/logos/dbpedia_navigator.png"
   inkscape:export-xdpi="45.850941"
   inkscape:export-ydpi="45.850941"><metadata
   id="metadata163"><rdf:RDF><cc:Work
       rdf:about=""><dc:format>image/svg+xml</dc:format><dc:type
         rdf:resource="http://purl.org/dc/dcmitype/StillImage" /></cc:Work></rdf:RDF></metadata><defs
   id="defs161"><linearGradient
   id="linearGradient4745"><stop
     style="stop-color:#d27333;stop-opacity:1;"
     offset="0"
     id="stop4747" /><stop
     id="stop4759"
     offset="0.5"
     style="stop-color:#eed619;stop-opacity:0.79591835;" /><stop
     style="stop-color:#c87137;stop-opacity:0;"
     offset="1"
     id="stop4749" /></linearGradient><linearGradient
   inkscape:collect="always"
   id="linearGradient3726"><stop
     style="stop-color:#004563;stop-opacity:1;"
     offset="0"
     id="stop3728" /><stop
     style="stop-color:#004563;stop-opacity:0;"
     offset="1"
     id="stop3730" /></linearGradient><radialGradient
   inkscape:collect="always"
   xlink:href="#XMLID_18_"
   id="radialGradient2315"
   gradientUnits="userSpaceOnUse"
   cx="131.353"
   cy="59.6313"
   r="55.6664" /><radialGradient
   inkscape:collect="always"
   xlink:href="#XMLID_18_"
   id="radialGradient2317"
   gradientUnits="userSpaceOnUse"
   cx="131.353"
   cy="59.6313"
   r="55.6664" /><radialGradient
   inkscape:collect="always"
   xlink:href="#XMLID_18_"
   id="radialGradient2319"
   gradientUnits="userSpaceOnUse"
   cx="131.353"
   cy="59.6313"
   r="55.6664" /><radialGradient
   inkscape:collect="always"
   xlink:href="#XMLID_18_"
   id="radialGradient2321"
   gradientUnits="userSpaceOnUse"
   cx="131.353"
   cy="59.6313"
   r="55.6664" /><radialGradient
   inkscape:collect="always"
   xlink:href="#XMLID_18_"
   id="radialGradient2323"
   gradientUnits="userSpaceOnUse"
   cx="131.353"
   cy="59.6313"
   r="55.6664" /><radialGradient
   inkscape:collect="always"
   xlink:href="#XMLID_18_"
   id="radialGradient2325"
   gradientUnits="userSpaceOnUse"
   cx="131.353"
   cy="59.6313"
   r="55.6664" /><radialGradient
   inkscape:collect="always"
   xlink:href="#XMLID_18_"
   id="radialGradient2327"
   gradientUnits="userSpaceOnUse"
   cx="131.353"
   cy="59.6313"
   r="55.6664" /><radialGradient
   inkscape:collect="always"
   xlink:href="#XMLID_18_"
   id="radialGradient2329"
   gradientUnits="userSpaceOnUse"
   cx="131.353"
   cy="59.6313"
   r="55.6664" /><radialGradient
   inkscape:collect="always"
   xlink:href="#XMLID_18_"
   id="radialGradient2331"
   gradientUnits="userSpaceOnUse"
   cx="131.353"
   cy="59.6313"
   r="55.6664" />
	
	
	
	
	
<linearGradient
   y2="275.91718"
   x2="136.23027"
   y1="270.16718"
   x1="133.39209"
   gradientTransform="matrix(4.51801,0,0,4.51801,-375.76052,-663.87442)"
   gradientUnits="userSpaceOnUse"
   id="linearGradient2425"
   xlink:href="#linearGradient3440"
   inkscape:collect="always" /><linearGradient
   y2="250.79219"
   x2="140.48027"
   y1="241.91719"
   x1="158.39209"
   gradientTransform="matrix(4.51801,0,0,4.51801,-375.76052,-573.51422)"
   gradientUnits="userSpaceOnUse"
   id="linearGradient2422"
   xlink:href="#linearGradient3757"
   inkscape:collect="always" /><linearGradient
   y2="264.87277"
   x2="288.16391"
   y1="246.48801"
   x1="279.02023"
   gradientUnits="userSpaceOnUse"
   id="linearGradient2389"
   xlink:href="#linearGradient3584"
   inkscape:collect="always" /><linearGradient
   y2="227.07349"
   x2="299.00925"
   y1="249.7009"
   x1="265.45667"
   gradientUnits="userSpaceOnUse"
   id="linearGradient2387"
   xlink:href="#linearGradient3440"
   inkscape:collect="always" /><linearGradient
   y2="241.04185"
   x2="247.02332"
   y1="224.07129"
   x1="238.06587"
   gradientTransform="translate(38.53733,19.09189)"
   gradientUnits="userSpaceOnUse"
   id="linearGradient2385"
   xlink:href="#linearGradient3561"
   inkscape:collect="always" /><radialGradient
   r="14.931247"
   fy="254.06732"
   fx="281.73419"
   cy="254.06732"
   cx="281.73419"
   gradientTransform="matrix(1.307824,-0.739795,0.364242,0.643915,-178.7373,298.2997)"
   gradientUnits="userSpaceOnUse"
   id="radialGradient2383"
   xlink:href="#linearGradient3440"
   inkscape:collect="always" /><linearGradient
   y2="237.95193"
   x2="281.4285"
   y1="278.77133"
   x1="281.4285"
   gradientTransform="matrix(3.4336876,0,0,3.4444224,-552.00629,-369.97815)"
   gradientUnits="userSpaceOnUse"
   id="linearGradient2376"
   xlink:href="#linearGradient3628"
   inkscape:collect="always" /><linearGradient
   y2="264.87277"
   x2="288.16391"
   y1="246.48801"
   x1="279.02023"
   gradientUnits="userSpaceOnUse"
   id="linearGradient2346"
   xlink:href="#linearGradient3584"
   inkscape:collect="always" /><linearGradient
   y2="227.07349"
   x2="299.00925"
   y1="249.7009"
   x1="265.45667"
   gradientUnits="userSpaceOnUse"
   id="linearGradient2344"
   xlink:href="#linearGradient3440"
   inkscape:collect="always" /><linearGradient
   y2="241.04185"
   x2="247.02332"
   y1="224.07129"
   x1="238.06587"
   gradientTransform="translate(38.53733,19.09189)"
   gradientUnits="userSpaceOnUse"
   id="linearGradient2342"
   xlink:href="#linearGradient3561"
   inkscape:collect="always" /><radialGradient
   r="14.931247"
   fy="254.06732"
   fx="281.73419"
   cy="254.06732"
   cx="281.73419"
   gradientTransform="matrix(1.307824,-0.739795,0.364242,0.643915,-178.7373,298.2997)"
   gradientUnits="userSpaceOnUse"
   id="radialGradient2340"
   xlink:href="#linearGradient3440"
   inkscape:collect="always" /><linearGradient
   y2="275.91718"
   x2="136.23027"
   y1="270.16718"
   x1="133.39209"
   gradientTransform="matrix(4.40658,0,0,4.40658,-365.3857,-860.3161)"
   gradientUnits="userSpaceOnUse"
   id="linearGradient2318"
   xlink:href="#linearGradient3440"
   inkscape:collect="always" /><linearGradient
   y2="250.79219"
   x2="140.48027"
   y1="241.91719"
   x1="158.39209"
   gradientTransform="matrix(4.40658,0,0,4.40658,-365.3857,-772.1845)"
   gradientUnits="userSpaceOnUse"
   id="linearGradient2315"
   xlink:href="#linearGradient3757"
   inkscape:collect="always" /><linearGradient
   y2="274.99829"
   x2="211.88393"
   y1="265.5892"
   x1="211.88393"
   gradientTransform="matrix(4.40658,0,0,4.40658,-535.2818,-853.5334)"
   gradientUnits="userSpaceOnUse"
   id="linearGradient2298"
   xlink:href="#linearGradient3916"
   inkscape:collect="always" /><linearGradient
   y2="264.87277"
   x2="288.16391"
   y1="246.48801"
   x1="279.02023"
   gradientUnits="userSpaceOnUse"
   id="linearGradient2044"
   xlink:href="#linearGradient3584"
   inkscape:collect="always" /><linearGradient
   y2="227.07349"
   x2="299.00925"
   y1="249.7009"
   x1="265.45667"
   gradientUnits="userSpaceOnUse"
   id="linearGradient2042"
   xlink:href="#linearGradient3440"
   inkscape:collect="always" /><linearGradient
   y2="241.04185"
   x2="247.02332"
   y1="224.07129"
   x1="238.06587"
   gradientTransform="translate(38.53733,19.09189)"
   gradientUnits="userSpaceOnUse"
   id="linearGradient2040"
   xlink:href="#linearGradient3561"
   inkscape:collect="always" /><radialGradient
   r="14.931247"
   fy="254.06732"
   fx="281.73419"
   cy="254.06732"
   cx="281.73419"
   gradientTransform="matrix(1.307824,-0.739795,0.364242,0.643915,-178.7373,298.2997)"
   gradientUnits="userSpaceOnUse"
   id="radialGradient2038"
   xlink:href="#linearGradient3440"
   inkscape:collect="always" /><linearGradient
   y2="274.99829"
   x2="211.88393"
   y1="265.5892"
   x1="211.88393"
   gradientTransform="matrix(4.40658,0,0,4.40658,-534.2818,-853.5334)"
   gradientUnits="userSpaceOnUse"
   id="linearGradient2036"
   xlink:href="#linearGradient3916"
   inkscape:collect="always" /><linearGradient
   y2="246.54927"
   x2="148.19162"
   y1="253.29927"
   x1="133.59119"
   gradientTransform="matrix(1.108571,0,0,1.108571,-17.31497,-6.035963)"
   gradientUnits="userSpaceOnUse"
   id="linearGradient2009"
   xlink:href="#linearGradient3776"
   inkscape:collect="always" /><linearGradient
   y2="250.79219"
   x2="140.48027"
   y1="241.91719"
   x1="158.39209"
   gradientTransform="translate(0,20)"
   gradientUnits="userSpaceOnUse"
   id="linearGradient2007"
   xlink:href="#linearGradient3757"
   inkscape:collect="always" /><linearGradient
   y2="275.91718"
   x2="136.23027"
   y1="270.16718"
   x1="133.39209"
   gradientUnits="userSpaceOnUse"
   id="linearGradient2005"
   xlink:href="#linearGradient3440"
   inkscape:collect="always" /><linearGradient
   y2="246.54927"
   x2="148.19162"
   y1="253.29927"
   x1="133.59119"
   gradientTransform="matrix(1.108571,0,0,1.108571,-17.31497,-6.035963)"
   gradientUnits="userSpaceOnUse"
   id="linearGradient1993"
   xlink:href="#linearGradient3776"
   inkscape:collect="always" /><linearGradient
   y2="250.79219"
   x2="140.48027"
   y1="241.91719"
   x1="158.39209"
   gradientTransform="translate(0,20)"
   gradientUnits="userSpaceOnUse"
   id="linearGradient1991"
   xlink:href="#linearGradient3757"
   inkscape:collect="always" /><linearGradient
   y2="275.91718"
   x2="136.23027"
   y1="270.16718"
   x1="133.39209"
   gradientUnits="userSpaceOnUse"
   id="linearGradient1989"
   xlink:href="#linearGradient3440"
   inkscape:collect="always" /><linearGradient
   y2="264.87277"
   x2="288.16391"
   y1="246.48801"
   x1="279.02023"
   gradientUnits="userSpaceOnUse"
   id="linearGradient1987"
   xlink:href="#linearGradient3584"
   inkscape:collect="always" /><linearGradient
   y2="227.07349"
   x2="299.00925"
   y1="249.7009"
   x1="265.45667"
   gradientUnits="userSpaceOnUse"
   id="linearGradient1985"
   xlink:href="#linearGradient3440"
   inkscape:collect="always" /><linearGradient
   y2="241.04185"
   x2="247.02332"
   y1="224.07129"
   x1="238.06587"
   gradientTransform="translate(38.53733,19.09189)"
   gradientUnits="userSpaceOnUse"
   id="linearGradient1983"
   xlink:href="#linearGradient3561"
   inkscape:collect="always" /><radialGradient
   r="14.931247"
   fy="254.06732"
   fx="281.73419"
   cy="254.06732"
   cx="281.73419"
   gradientTransform="matrix(1.307824,-0.739795,0.364242,0.643915,-178.7373,298.2997)"
   gradientUnits="userSpaceOnUse"
   id="radialGradient1981"
   xlink:href="#linearGradient3440"
   inkscape:collect="always" /><linearGradient
   y2="274.99829"
   x2="211.88393"
   y1="265.5892"
   x1="211.88393"
   gradientTransform="matrix(4.40658,0,0,4.40658,-534.2818,-853.5334)"
   gradientUnits="userSpaceOnUse"
   id="linearGradient1979"
   xlink:href="#linearGradient3916"
   inkscape:collect="always" /><linearGradient
   y2="274.99829"
   x2="211.88393"
   y1="265.5892"
   x1="211.88393"
   gradientTransform="matrix(4.40658,0,0,4.40658,-534.2818,-853.5334)"
   gradientUnits="userSpaceOnUse"
   id="linearGradient3029"
   xlink:href="#linearGradient3916"
   inkscape:collect="always" /><linearGradient
   y2="246.54927"
   x2="148.19162"
   y1="253.29927"
   x1="133.59119"
   gradientTransform="matrix(1.108571,0,0,1.108571,-17.31497,-6.035963)"
   gradientUnits="userSpaceOnUse"
   id="linearGradient3015"
   xlink:href="#linearGradient3776"
   inkscape:collect="always" /><linearGradient
   y2="250.79219"
   x2="140.48027"
   y1="241.91719"
   x1="158.39209"
   gradientTransform="translate(0,20)"
   gradientUnits="userSpaceOnUse"
   id="linearGradient3013"
   xlink:href="#linearGradient3757"
   inkscape:collect="always" /><linearGradient
   y2="275.91718"
   x2="136.23027"
   y1="270.16718"
   x1="133.39209"
   gradientUnits="userSpaceOnUse"
   id="linearGradient3011"
   xlink:href="#linearGradient3440"
   inkscape:collect="always" /><linearGradient
   y2="264.87277"
   x2="288.16391"
   y1="246.48801"
   x1="279.02023"
   gradientUnits="userSpaceOnUse"
   id="linearGradient3009"
   xlink:href="#linearGradient3584"
   inkscape:collect="always" /><linearGradient
   y2="227.07349"
   x2="299.00925"
   y1="249.7009"
   x1="265.45667"
   gradientUnits="userSpaceOnUse"
   id="linearGradient3007"
   xlink:href="#linearGradient3440"
   inkscape:collect="always" /><linearGradient
   y2="241.04185"
   x2="247.02332"
   y1="224.07129"
   x1="238.06587"
   gradientTransform="translate(38.53733,19.09189)"
   gradientUnits="userSpaceOnUse"
   id="linearGradient3005"
   xlink:href="#linearGradient3561"
   inkscape:collect="always" /><radialGradient
   r="14.931247"
   fy="254.06732"
   fx="281.73419"
   cy="254.06732"
   cx="281.73419"
   gradientTransform="matrix(1.307824,-0.739795,0.364242,0.643915,-178.7373,298.2997)"
   gradientUnits="userSpaceOnUse"
   id="radialGradient3003"
   xlink:href="#linearGradient3440"
   inkscape:collect="always" /><linearGradient
   y2="294.29398"
   x2="211.20313"
   y1="253.56172"
   x1="211.20313"
   gradientTransform="translate(-38.55509,1.539214)"
   gradientUnits="userSpaceOnUse"
   id="linearGradient3001"
   xlink:href="#linearGradient3687"
   inkscape:collect="always" /><linearGradient
   y2="246.54927"
   x2="148.19162"
   y1="253.29927"
   x1="133.59119"
   gradientTransform="matrix(1.108571,0,0,1.108571,-17.31497,-6.035963)"
   gradientUnits="userSpaceOnUse"
   id="linearGradient3859"
   xlink:href="#linearGradient3776"
   inkscape:collect="always" /><linearGradient
   y2="250.79219"
   x2="140.48027"
   y1="241.91719"
   x1="158.39209"
   gradientTransform="translate(0,20)"
   gradientUnits="userSpaceOnUse"
   id="linearGradient3857"
   xlink:href="#linearGradient3757"
   inkscape:collect="always" /><linearGradient
   y2="275.91718"
   x2="136.23027"
   y1="270.16718"
   x1="133.39209"
   gradientUnits="userSpaceOnUse"
   id="linearGradient3855"
   xlink:href="#linearGradient3440"
   inkscape:collect="always" /><linearGradient
   y2="264.87277"
   x2="288.16391"
   y1="246.48801"
   x1="279.02023"
   gradientUnits="userSpaceOnUse"
   id="linearGradient3853"
   xlink:href="#linearGradient3584"
   inkscape:collect="always" /><linearGradient
   y2="227.07349"
   x2="299.00925"
   y1="249.7009"
   x1="265.45667"
   gradientUnits="userSpaceOnUse"
   id="linearGradient3851"
   xlink:href="#linearGradient3440"
   inkscape:collect="always" /><linearGradient
   y2="241.04185"
   x2="247.02332"
   y1="224.07129"
   x1="238.06587"
   gradientTransform="translate(38.53733,19.09189)"
   gradientUnits="userSpaceOnUse"
   id="linearGradient3849"
   xlink:href="#linearGradient3561"
   inkscape:collect="always" /><radialGradient
   r="14.931247"
   fy="254.06732"
   fx="281.73419"
   cy="254.06732"
   cx="281.73419"
   gradientTransform="matrix(1.307824,-0.739795,0.364242,0.643915,-178.7373,298.2997)"
   gradientUnits="userSpaceOnUse"
   id="radialGradient3847"
   xlink:href="#linearGradient3440"
   inkscape:collect="always" /><linearGradient
   y2="294.29398"
   x2="211.20313"
   y1="253.56172"
   x1="211.20313"
   gradientTransform="translate(-38.55509,1.539214)"
   gradientUnits="userSpaceOnUse"
   id="linearGradient3845"
   xlink:href="#linearGradient3687"
   inkscape:collect="always" /><linearGradient
   id="linearGradient3440"><stop
     style="stop-color:black;stop-opacity:1;"
     offset="0"
     id="stop3442" /><stop
     id="stop3452"
     offset="0.3125"
     style="stop-color:black;stop-opacity:1;" /><stop
     id="stop3446"
     offset="0.53727454"
     style="stop-color:white;stop-opacity:1;" /><stop
     style="stop-color:white;stop-opacity:1;"
     offset="0.60522962"
     id="stop3542" /><stop
     style="stop-color:black;stop-opacity:1;"
     offset="0.6964286"
     id="stop3448" /><stop
     style="stop-color:black;stop-opacity:1;"
     offset="1"
     id="stop3444" /></linearGradient><linearGradient
   id="linearGradient3555"><stop
     style="stop-color:#319328;stop-opacity:1;"
     offset="0"
     id="stop3557" /><stop
     style="stop-color:black;stop-opacity:0;"
     offset="1"
     id="stop3559" /></linearGradient><linearGradient
   id="linearGradient3561"
   inkscape:collect="always"><stop
     id="stop3563"
     offset="0"
     style="stop-color:#cbecff;stop-opacity:1;" /><stop
     id="stop3565"
     offset="1"
     style="stop-color:#cbecff;stop-opacity:0;" /></linearGradient><linearGradient
   id="linearGradient3584"><stop
     id="stop3586"
     offset="0"
     style="stop-color:white;stop-opacity:1;" /><stop
     style="stop-color:white;stop-opacity:0.49803922;"
     offset="1"
     id="stop3592" /><stop
     id="stop3588"
     offset="1"
     style="stop-color:white;stop-opacity:0;" /></linearGradient><linearGradient
   id="linearGradient3628"><stop
     id="stop3630"
     offset="0"
     style="stop-color:white;stop-opacity:1;" /><stop
     id="stop3632"
     offset="1"
     style="stop-color:#ffffff;stop-opacity:0.62962961;" /></linearGradient><linearGradient
   id="linearGradient3687"><stop
     style="stop-color:#8b969f;stop-opacity:1;"
     offset="0"
     id="stop3693" /><stop
     id="stop3737"
     offset="0"
     style="stop-color:white;stop-opacity:1;" /><stop
     id="stop3735"
     offset="1"
     style="stop-color:white;stop-opacity:1;" /></linearGradient><linearGradient
   id="linearGradient3757"><stop
     id="stop3759"
     offset="0"
     style="stop-color:black;stop-opacity:1;" /><stop
     id="stop3761"
     offset="1"
     style="stop-color:black;stop-opacity:0;" /></linearGradient><linearGradient
   id="linearGradient3776"><stop
     style="stop-color:white;stop-opacity:1;"
     offset="0"
     id="stop3778" /><stop
     id="stop3786"
     offset="1"
     style="stop-color:white;stop-opacity:0;" /></linearGradient><linearGradient
   id="linearGradient3916"><stop
     style="stop-color:#8b8b8b;stop-opacity:0.28703704;"
     offset="0"
     id="stop3918" /><stop
     id="stop3924"
     offset="0.44642857"
     style="stop-color:#8d8d8d;stop-opacity:0.09259259;" /><stop
     id="stop3922"
     offset="1"
     style="stop-color:#8f8f8f;stop-opacity:0;" /></linearGradient><linearGradient
   inkscape:collect="always"
   xlink:href="#linearGradient3726"
   id="linearGradient3732"
   x1="403.47693"
   y1="110.51495"
   x2="404.33432"
   y2="182.67908"
   gradientUnits="userSpaceOnUse" /><linearGradient
   inkscape:collect="always"
   xlink:href="#linearGradient4745"
   id="linearGradient4751"
   x1="27.008001"
   y1="108.4607"
   x2="26.615448"
   y2="208.34743"
   gradientUnits="userSpaceOnUse" /><linearGradient
   inkscape:collect="always"
   xlink:href="#linearGradient4745"
   id="linearGradient4761"
   x1="77.506302"
   y1="115.13101"
   x2="79.262497"
   y2="194.01152"
   gradientUnits="userSpaceOnUse" /><linearGradient
   inkscape:collect="always"
   xlink:href="#linearGradient4745"
   id="linearGradient4763"
   x1="119.31952"
   y1="122.0713"
   x2="119.31952"
   y2="190.66307"
   gradientUnits="userSpaceOnUse" /><linearGradient
   inkscape:collect="always"
   xlink:href="#linearGradient4745"
   id="linearGradient4765"
   x1="159.87889"
   y1="121.91031"
   x2="159.87889"
   y2="178.4985"
   gradientUnits="userSpaceOnUse" /><linearGradient
   inkscape:collect="always"
   xlink:href="#linearGradient4745"
   id="linearGradient4767"
   x1="199.39757"
   y1="120.41837"
   x2="199.39757"
   y2="195.0119"
   gradientUnits="userSpaceOnUse" /><linearGradient
   inkscape:collect="always"
   xlink:href="#linearGradient4745"
   id="linearGradient4769"
   x1="226.55807"
   y1="115.13101"
   x2="226.55807"
   y2="190.58194"
   gradientUnits="userSpaceOnUse" /><linearGradient
   inkscape:collect="always"
   xlink:href="#linearGradient4745"
   id="linearGradient4771"
   x1="251.63084"
   y1="121.91031"
   x2="251.63084"
   y2="190.50206"
   gradientUnits="userSpaceOnUse" /></defs><sodipodi:namedview
   inkscape:window-height="951"
   inkscape:window-width="1280"
   inkscape:pageshadow="2"
   inkscape:pageopacity="0.0"
   guidetolerance="10.0"
   gridtolerance="10.0"
   objecttolerance="10.0"
   borderopacity="1.0"
   bordercolor="#666666"
   pagecolor="#ffffff"
   id="base"
   inkscape:zoom="1.1663211"
   inkscape:cx="129.32206"
   inkscape:cy="78.817407"
   inkscape:window-x="0"
   inkscape:window-y="0"
   inkscape:current-layer="Layer_1" />
<g
   id="g94"
   transform="translate(10.400001,0)"
   inkscape:export-filename="/home/jl/promotion/dl-learner-svn/trunk/resources/logos/text3292.png"
   inkscape:export-xdpi="67.5"
   inkscape:export-ydpi="67.5">
		<path
   style="fill:#004563"
   id="path96"
   d="M 184.007,65.5 C 182.079,65.529 179.952,65.49 177.702,65.451 C 163.736,65.202 143.662,64.867 131.859,80.32 C 120.055,64.867 99.982,65.203 86.014,65.451 C 83.764,65.49 81.638,65.529 79.711,65.5 C 79.249,65.495 74.856,65.636 66.651,65.918 C 66.651,65.918 67.207,76.222 74.456,76.222 C 77.059,76.222 78.941,76.161 79.636,76.156 C 81.659,76.183 83.866,76.144 86.203,76.104 C 105.263,75.764 120.382,76.828 127.162,93.468 L 128.514,96.786 L 131.618,96.786 L 132.094,96.786 L 135.2,96.786 L 136.553,93.468 C 143.332,76.828 158.45,75.763 177.511,76.104 C 179.849,76.145 182.056,76.184 184.079,76.156 C 184.772,76.161 186.656,76.222 189.258,76.222 C 196.509,76.222 197.064,65.918 197.064,65.918 C 188.861,65.636 184.467,65.496 184.007,65.5 z " />
	</g><g
   id="g98"
   transform="translate(10,0)"
   inkscape:export-filename="/home/jl/promotion/dl-learner-svn/trunk/resources/logos/text3292.png"
   inkscape:export-xdpi="67.5"
   inkscape:export-ydpi="67.5">
		<radialGradient
   gradientUnits="userSpaceOnUse"
   r="63.037201"
   cy="61.586399"
   cx="130.28909"
   id="XMLID_17_">
			<stop
   id="stop101"
   style="stop-color:#6D8896"
   offset="0" />
			<stop
   id="stop103"
   style="stop-color:#4B7487"
   offset="0.0435" />
			<stop
   id="stop105"
   style="stop-color:#286379"
   offset="0.0933" />
			<stop
   id="stop107"
   style="stop-color:#00556C"
   offset="0.1494" />
			<stop
   id="stop109"
   style="stop-color:#004962"
   offset="0.2114" />
			<stop
   id="stop111"
   style="stop-color:#004059"
   offset="0.2815" />
			<stop
   id="stop113"
   style="stop-color:#003951"
   offset="0.3633" />
			<stop
   id="stop115"
   style="stop-color:#00344C"
   offset="0.4644" />
			<stop
   id="stop117"
   style="stop-color:#003149"
   offset="0.6062" />
			<stop
   id="stop119"
   style="stop-color:#003048"
   offset="1" />
		</radialGradient>
		<path
   style="fill:url(#XMLID_17_)"
   id="path121"
   d="M 137.327,1.135 L 137.327,1.135 C 134.404,2.502 132.185,4.925 131.084,7.957 C 130.597,9.304 130.354,10.698 130.354,12.089 C 130.354,13.835 130.736,15.576 131.5,17.206 C 133.281,21.019 136.909,23.466 141.004,23.967 C 141.11,25.109 141.231,26.251 141.231,27.408 C 141.231,27.961 141.19,28.516 141.167,29.071 C 140.673,29.198 140.151,29.205 139.685,29.423 C 137.678,30.359 136.16,32.02 135.405,34.1 C 135.07,35.022 134.904,35.978 134.904,36.931 C 134.904,38.129 135.168,39.322 135.689,40.439 C 136.169,41.462 136.904,42.303 137.743,43.044 C 136.555,45.673 135.058,48.257 133.248,50.761 C 133.078,50.722 132.911,50.685 132.738,50.657 C 132.192,47.642 131.412,44.728 130.383,41.964 C 130.994,40.881 131.402,39.714 131.402,38.502 C 131.402,37.48 131.182,36.453 130.731,35.487 C 129.621,33.113 127.355,31.639 124.8,31.442 C 121.846,27.261 118.241,23.664 114.076,20.688 C 114.19,20.089 114.387,19.494 114.387,18.898 C 114.387,14.981 111.962,11.286 108.083,9.871 C 103.118,8.069 97.612,10.644 95.809,15.607 C 94.936,18.013 95.051,20.614 96.134,22.932 C 97.217,25.25 99.139,27.006 101.545,27.879 C 104.416,28.92 107.534,28.337 110.037,26.673 C 113.208,28.923 115.974,31.646 118.303,34.789 C 117.575,35.941 117.064,37.2 117.064,38.542 C 117.064,39.561 117.285,40.589 117.736,41.559 C 118.898,44.039 121.315,45.55 123.951,45.648 C 124.655,47.776 125.214,50.017 125.606,52.357 C 125.385,52.528 125.156,52.69 124.953,52.881 C 121.64,50.612 118.178,48.751 114.595,47.38 C 114.469,46.952 114.341,46.514 114.341,46.514 C 113.527,44.775 112.087,43.458 110.283,42.805 C 108.483,42.154 106.537,42.243 104.804,43.055 C 104.035,43.412 103.383,43.949 102.787,44.563 C 98.811,44.174 94.823,44.363 90.879,45.015 C 88.29,41.157 83.26,39.578 78.934,41.604 C 74.143,43.846 72.069,49.565 74.309,54.353 C 76.552,59.142 82.271,61.214 87.058,58.978 C 89.887,57.655 91.748,55.091 92.32,52.105 C 95.217,51.623 98.156,51.437 101.115,51.66 C 101.208,51.961 101.212,52.294 101.345,52.58 C 103.02,56.163 107.294,57.717 110.874,56.045 C 111.652,55.679 112.314,55.155 112.905,54.554 C 116.028,55.862 119.087,57.591 122.028,59.759 C 122.045,61.07 122.327,62.363 122.887,63.547 C 123.927,65.781 125.783,67.481 128.109,68.325 C 130.437,69.171 132.953,69.059 135.195,68.011 C 137.674,66.852 139.401,64.681 140.121,62.095 C 145.344,61.342 150.215,59.909 154.64,57.799 C 156.662,59.017 159.13,59.285 161.313,58.264 C 163.885,57.059 165.428,54.493 165.428,51.777 C 165.428,51.451 165.315,51.121 165.269,50.791 C 167.486,48.82 169.509,46.62 171.325,44.228 C 173.703,44.813 176.183,44.71 178.436,43.654 C 181.042,42.434 183.015,40.273 183.993,37.573 C 186.018,31.994 183.127,25.808 177.544,23.775 C 171.964,21.756 165.773,24.647 163.742,30.225 C 163.31,31.418 163.1,32.653 163.1,33.88 C 163.1,36.176 163.865,38.417 165.249,40.288 C 163.912,42.019 162.423,43.638 160.783,45.122 C 158.99,44.438 157.016,44.442 155.242,45.274 C 152.822,46.402 151.316,48.792 151.181,51.392 C 147.577,53.042 143.601,54.179 139.328,54.807 C 141.601,51.609 143.48,48.291 144.891,44.892 C 145.501,44.764 146.134,44.706 146.7,44.442 C 148.707,43.505 150.227,41.841 150.982,39.759 C 151.317,38.837 151.483,37.883 151.483,36.93 C 151.483,35.732 151.22,34.541 150.698,33.424 C 150.156,32.265 149.295,31.331 148.301,30.539 C 148.371,29.507 148.442,28.473 148.442,27.435 C 148.442,25.856 148.288,24.28 148.126,22.706 C 150.765,21.3 152.792,19.038 153.817,16.207 C 154.306,14.862 154.548,13.469 154.548,12.081 C 154.548,10.334 154.165,8.595 153.403,6.968 C 150.579,0.932 143.368,-1.686 137.327,1.135 z " />
	</g><g
   id="g123"
   transform="translate(10,0)"
   inkscape:export-filename="/home/jl/promotion/dl-learner-svn/trunk/resources/logos/text3292.png"
   inkscape:export-xdpi="67.5"
   inkscape:export-ydpi="67.5">
		<g
   id="g125">
			<g
   id="g127">
				<radialGradient
   gradientUnits="userSpaceOnUse"
   r="55.666401"
   cy="59.631302"
   cx="131.353"
   id="XMLID_18_">
					<stop
   id="stop130"
   style="stop-color:#FFD528"
   offset="0" />
					<stop
   id="stop132"
   style="stop-color:#FFD227"
   offset="0.222" />
					<stop
   id="stop134"
   style="stop-color:#FFC925"
   offset="0.4435" />
					<stop
   id="stop136"
   style="stop-color:#FDBB21"
   offset="0.6647" />
					<stop
   id="stop138"
   style="stop-color:#FAA61D"
   offset="0.8846" />
					<stop
   id="stop140"
   style="stop-color:#F8991D"
   offset="1" />
				</radialGradient>
				<path
   style="fill:url(#radialGradient2315)"
   id="path142"
   d="M 128.544,38.833 C 128.716,36.449 126.922,34.378 124.538,34.207 C 122.153,34.036 120.084,35.83 119.913,38.214 C 119.741,40.598 121.536,42.669 123.924,42.838 C 126.303,43.011 128.374,41.217 128.544,38.833 z " />
				<circle
   sodipodi:ry="6.6900001"
   sodipodi:rx="6.6900001"
   sodipodi:cy="59.631001"
   sodipodi:cx="131.353"
   style="fill:url(#radialGradient2317)"
   id="circle144"
   r="6.6900001"
   cy="59.631001"
   cx="131.353" />
				<circle
   sodipodi:ry="6.493"
   sodipodi:rx="6.493"
   sodipodi:cy="50.263"
   sodipodi:cx="82.981003"
   style="fill:url(#radialGradient2319)"
   id="circle146"
   r="6.493"
   cy="50.263"
   cx="82.981003" />
				<path
   style="fill:url(#radialGradient2321)"
   id="path148"
   d="M 111.45,19.487 C 111.707,15.91 109.013,12.803 105.436,12.546 C 101.861,12.293 98.754,14.981 98.499,18.558 C 98.242,22.135 100.932,25.243 104.513,25.499 C 108.087,25.755 111.193,23.063 111.45,19.487 z " />
				<path
   style="fill:url(#radialGradient2323)"
   id="path150"
   d="M 108.147,45.254 C 105.775,45.083 103.714,46.866 103.542,49.24 C 103.374,51.612 105.156,53.673 107.531,53.844 C 109.903,54.013 111.965,52.228 112.136,49.856 C 112.303,47.484 110.52,45.422 108.147,45.254 z " />
				<path
   style="fill:url(#radialGradient2325)"
   id="path152"
   d="M 174.369,26.85 C 170.475,26.571 167.092,29.501 166.814,33.396 C 166.535,37.291 169.465,40.673 173.358,40.953 C 177.255,41.234 180.635,38.302 180.917,34.407 C 181.194,30.514 178.264,27.129 174.369,26.85 z " />
				<circle
   sodipodi:ry="4.3270001"
   sodipodi:rx="4.3270001"
   sodipodi:cy="51.766998"
   sodipodi:cx="158.276"
   style="fill:url(#radialGradient2327)"
   id="circle154"
   r="4.3270001"
   cy="51.766998"
   cx="158.276" />
				<circle
   sodipodi:ry="5.2259998"
   sodipodi:rx="5.2259998"
   sodipodi:cy="36.931999"
   sodipodi:cx="143.19099"
   style="fill:url(#radialGradient2329)"
   id="circle156"
   r="5.2259998"
   cy="36.931999"
   cx="143.19099" />
				<path
   style="fill:url(#radialGradient2331)"
   id="path158"
   d="M 143.05,3.719 C 138.426,3.386 134.412,6.865 134.079,11.487 C 133.751,16.112 137.226,20.127 141.849,20.458 C 146.475,20.788 150.487,17.309 150.819,12.687 C 151.147,8.064 147.673,4.049 143.05,3.719 z " />
			</g>
		</g>
	</g>
<g
   id="g3500"
   transform="matrix(0.4949083,0,0,0.4925116,271.15933,-90.486856)"
   inkscape:export-filename="/home/jl/promotion/dl-learner-svn/trunk/resources/logos/text3292.png"
   inkscape:export-xdpi="67.5"
   inkscape:export-ydpi="67.5"><path
     id="path3765"
     d="M 336.47828,284.92223 L 316.10957,293.84463 C 313.79541,297.56435 317.4864,305.38612 321.52323,305.77095 L 341.44661,296.32214 L 336.47828,284.92223 z "
     style="fill:#000000;fill-opacity:1;fill-rule:nonzero;stroke:none;stroke-width:0.86199999;stroke-linecap:butt;stroke-linejoin:round;stroke-miterlimit:4;stroke-opacity:1" /><path
     sodipodi:nodetypes="ccccc"
     id="rect3739"
     d="M 182.48082,352.78607 L 325.70203,284.53687 C 335.11753,284.77963 340.43089,296.162 335.50081,304.4038 L 193.86007,375.85734 C 184.57091,375.92987 176.81233,360.89136 182.48082,352.78607 z "
     style="fill:url(#linearGradient2318);fill-opacity:1;fill-rule:nonzero;stroke:none;stroke-width:0.86199999;stroke-linecap:butt;stroke-linejoin:round;stroke-miterlimit:4;stroke-opacity:1" /><path
     style="fill:url(#linearGradient2315);fill-opacity:1;fill-rule:nonzero;stroke:none;stroke-width:0.86199999;stroke-linecap:butt;stroke-linejoin:round;stroke-miterlimit:4;stroke-opacity:1"
     d="M 182.48082,352.78607 L 325.70203,284.53687 C 335.11753,284.77963 340.43089,296.162 335.50081,304.4038 L 193.86007,375.85734 C 184.57091,375.92987 176.81233,360.89136 182.48082,352.78607 z "
     id="path3747"
     sodipodi:nodetypes="ccccc" /><path
     sodipodi:nodetypes="cccccsccsc"
     id="path3638"
     d="M 405.38534,310.4922 L 385.55573,311.59385 C 359.13806,313.18352 338.86444,338.29675 335.844,370.25644 L 355.67361,370.25644 C 357.9199,341.78941 373.72415,318.57598 395.60824,312.14467 C 405.13821,313.78524 414.17576,318.49235 421.77231,325.50211 C 433.25942,336.10188 441.7338,351.90528 444.76914,370.25644 L 483.03509,370.25644 C 461.48308,335.93615 460.67205,334.18497 448.98673,325.77752 C 430.30807,312.33847 421.14164,311.78051 405.38534,310.4922 z "
     style="fill:url(#linearGradient2298);fill-opacity:1;fill-rule:nonzero;stroke:none;stroke-width:0.86165088;stroke-linecap:butt;stroke-linejoin:round;stroke-miterlimit:4;stroke-opacity:1" /><g
     transform="matrix(4.40658,0,0,4.40658,-838.2272,-849.0049)"
     id="g3707"><path
       style="fill:url(#radialGradient2038);fill-opacity:1;fill-rule:nonzero;stroke:none;stroke-width:0.86165088;stroke-linecap:butt;stroke-linejoin:round;stroke-miterlimit:4;stroke-opacity:1"
       d="M 294.09375,241.71875 C 296.60637,245.96256 292.49091,253.04062 284.90625,257.53125 C 277.32158,262.0219 269.13762,262.2438 266.625,258 L 268.28125,260.75 C 270.79387,264.99378 278.97784,264.80314 286.5625,260.3125 C 294.14717,255.82187 298.26262,248.74379 295.75,244.5 L 294.09375,241.71875 z "
       id="path3709" /><path
       style="fill:url(#linearGradient2040);fill-opacity:1;fill-rule:nonzero;stroke:none;stroke-width:0.86165088;stroke-linecap:butt;stroke-linejoin:round;stroke-miterlimit:4;stroke-opacity:1"
       id="path3711"
       d="M 294.64549,242.80613 C 297.1581,247.04993 293.04166,254.13875 285.457,258.62938 C 277.87234,263.12002 269.67745,263.32036 267.16483,259.07656 C 264.65221,254.83277 268.76865,247.74394 276.35331,243.2533 C 283.93797,238.76266 292.13287,238.56234 294.64549,242.80613 z " /><path
       style="fill:url(#linearGradient2042);fill-opacity:1;fill-rule:nonzero;stroke:none;stroke-width:0.86165088;stroke-linecap:butt;stroke-linejoin:round;stroke-miterlimit:4;stroke-opacity:1"
       d="M 286.875,238.65625 C 283.56411,238.73719 279.60483,239.91093 275.8125,242.15625 C 268.22784,246.64689 264.11238,253.7562 266.625,258 L 268.28125,260.75 C 265.76864,256.5062 269.8841,249.42813 277.46875,244.9375 C 285.05341,240.44686 293.23739,240.25621 295.75,244.5 L 294.09375,241.71875 C 292.83744,239.59686 290.18589,238.57531 286.875,238.65625 z "
       id="path3713" /><path
       style="fill:url(#linearGradient2044);fill-opacity:1;fill-rule:nonzero;stroke:none;stroke-width:0.86165088;stroke-linecap:butt;stroke-linejoin:round;stroke-miterlimit:4;stroke-opacity:1"
       d="M 285.45704,244.46552 C 283.31014,244.66573 280.86999,245.46534 278.52687,246.85348 C 274.4655,249.25954 271.83918,252.74383 271.59561,255.63116 C 273.18683,253.30771 275.87134,250.87298 279.25904,248.87625 C 283.22999,246.53575 287.26725,245.35068 290.28521,245.39663 C 289.08728,244.5995 287.39668,244.28464 285.45704,244.46552 z "
       id="path3715" /></g><path
     d="M 463.65584,227.89473 C 474.72786,246.59538 456.58844,277.83283 423.16603,297.62115 C 389.74362,317.40951 353.63218,318.29233 342.56013,299.59168 C 331.48807,280.89108 349.62748,249.65359 383.04989,229.86522 C 416.4723,210.07686 452.58378,209.19413 463.65584,227.89473 z "
     id="path3415"
     style="fill:none;fill-opacity:1;fill-rule:nonzero;stroke:#000000;stroke-width:2.91715598;stroke-linecap:butt;stroke-linejoin:round;stroke-miterlimit:4;stroke-dasharray:none;stroke-opacity:1" /><path
     sodipodi:nodetypes="csssssssc"
     id="path3397"
     d="M 196.28433,365.04388 C 196.28433,369.98414 194.47942,373.0542 191.89584,375.64607 C 191.24652,376.29748 189.98347,377.13062 189.1265,377.13062 C 188.07149,377.13062 186.83761,375.73513 185.82978,374.97532 C 183.29423,373.06374 181.22611,369.04952 181.22611,364.45226 C 181.22611,359.57809 183.30098,355.29312 185.75709,353.56075 C 186.53834,353.00971 188.12337,352.02504 189.0185,352.02504 C 189.79358,352.02504 190.89912,353.01227 191.43188,353.56769 C 193.51993,355.74455 196.28433,359.96178 196.28433,365.04388 z "
     style="fill:#000000;fill-opacity:1;fill-rule:nonzero;stroke:none;stroke-width:0.72248864;stroke-linecap:butt;stroke-linejoin:miter;stroke-miterlimit:4;stroke-dasharray:none;stroke-dashoffset:0;stroke-opacity:1"
     transform="matrix(0.6564768,-0.4924735,0.4446977,0.8993476,-98.158225,129.48989)" /></g><g
   id="g3296"
   transform="translate(10,0)"
   style="fill:url(#linearGradient3732);fill-opacity:1.0"
   inkscape:export-filename="/home/jl/promotion/dl-learner-svn/trunk/resources/logos/text3292.png"
   inkscape:export-xdpi="67.5"
   inkscape:export-ydpi="67.5"><text
     id="text3190"
     y="143.048"
     x="270.39694"
     style="font-size:78px;font-style:normal;font-weight:bold;fill:url(#linearGradient3732);fill-opacity:1.0;stroke:none;stroke-width:1px;stroke-linecap:butt;stroke-linejoin:miter;stroke-opacity:1;font-family:Arial"
     xml:space="preserve"><tspan
       y="143.048"
       x="270.39694"
       id="tspan3192"
       sodipodi:role="line"
       style="fill-opacity:1.0;fill:url(#linearGradient3732)">N</tspan></text>
<text
     id="text3194"
     y="142.13394"
     x="318.22372"
     style="font-size:78px;font-style:normal;font-weight:bold;fill:url(#linearGradient3732);fill-opacity:1.0;stroke:none;stroke-width:1px;stroke-linecap:butt;stroke-linejoin:miter;stroke-opacity:1;font-family:Arial"
     xml:space="preserve"><tspan
       y="142.13394"
       x="318.22372"
       id="tspan3196"
       sodipodi:role="line"
       style="fill-opacity:1.0;fill:url(#linearGradient3732)">a</tspan></text>
<text
     id="text3198"
     y="143.048"
     x="354.25006"
     style="font-size:78px;font-style:normal;font-weight:bold;fill:url(#linearGradient3732);fill-opacity:1.0;stroke:none;stroke-width:1px;stroke-linecap:butt;stroke-linejoin:miter;stroke-opacity:1;font-family:Arial"
     xml:space="preserve"><tspan
       y="143.048"
       x="354.25006"
       id="tspan3200"
       sodipodi:role="line"
       style="fill-opacity:1.0;fill:url(#linearGradient3732)">v</tspan></text>
<text
     id="text3202"
     y="143.048"
     x="392.46439"
     style="font-size:78px;font-style:normal;font-weight:bold;fill:url(#linearGradient3732);fill-opacity:1.0;stroke:none;stroke-width:1px;stroke-linecap:butt;stroke-linejoin:miter;stroke-opacity:1;font-family:Arial"
     xml:space="preserve"><tspan
       y="143.048"
       x="392.46439"
       id="tspan3204"
       sodipodi:role="line"
       style="fill-opacity:1.0;fill:url(#linearGradient3732)">i</tspan></text>
<text
     id="text3206"
     y="144.56596"
     x="406.64578"
     style="font-size:78px;font-style:normal;font-weight:bold;fill:url(#linearGradient3732);fill-opacity:1.0;stroke:none;stroke-width:1px;stroke-linecap:butt;stroke-linejoin:miter;stroke-opacity:1;font-family:Arial"
     xml:space="preserve"><tspan
       y="144.56596"
       x="406.64578"
       id="tspan3208"
       sodipodi:role="line"
       style="fill-opacity:1.0;fill:url(#linearGradient3732)">g</tspan></text>
<text
     id="text3210"
     y="142.13394"
     x="447.80374"
     style="font-size:78px;font-style:normal;font-weight:bold;fill:url(#linearGradient3732);fill-opacity:1.0;stroke:none;stroke-width:1px;stroke-linecap:butt;stroke-linejoin:miter;stroke-opacity:1;font-family:Arial"
     xml:space="preserve"><tspan
       y="142.13394"
       x="447.80374"
       id="tspan3212"
       sodipodi:role="line"
       style="fill-opacity:1.0;fill:url(#linearGradient3732)">a</tspan></text>
<text
     id="text3214"
     y="142.13394"
     x="486.03033"
     style="font-size:78px;font-style:normal;font-weight:bold;fill:url(#linearGradient3732);fill-opacity:1.0;stroke:none;stroke-width:1px;stroke-linecap:butt;stroke-linejoin:miter;stroke-opacity:1;font-family:Arial"
     xml:space="preserve"><tspan
       y="142.13394"
       x="486.03033"
       id="tspan3216"
       sodipodi:role="line"
       style="fill-opacity:1.0;fill:url(#linearGradient3732)">t</tspan></text>
<text
     id="text3218"
     y="142.13394"
     x="505.88095"
     style="font-size:78px;font-style:normal;font-weight:bold;fill:url(#linearGradient3732);fill-opacity:1.0;stroke:none;stroke-width:1px;stroke-linecap:butt;stroke-linejoin:miter;stroke-opacity:1;font-family:Arial"
     xml:space="preserve"><tspan
       y="142.13394"
       x="505.88095"
       id="tspan3220"
       sodipodi:role="line"
       style="fill-opacity:1.0;fill:url(#linearGradient3732)">o</tspan></text>
<text
     id="text3222"
     y="143.048"
     x="547.52039"
     style="font-size:78px;font-style:normal;font-weight:bold;fill:url(#linearGradient3732);fill-opacity:1.0;stroke:none;stroke-width:1px;stroke-linecap:butt;stroke-linejoin:miter;stroke-opacity:1;font-family:Arial"
     xml:space="preserve"><tspan
       y="143.048"
       x="547.52039"
       id="tspan3224"
       sodipodi:role="line"
       style="fill-opacity:1.0;fill:url(#linearGradient3732)">r</tspan></text>
</g><g
   id="g5"
   inkscape:export-filename="/home/jl/promotion/dl-learner-svn/trunk/resources/logos/text3292.png"
   inkscape:export-xdpi="67.5"
   inkscape:export-ydpi="67.5">
		<g
   id="g7">
			<path
   style="fill:#ffffff;stroke:#ffffff;stroke-width:6.06710005"
   id="path9"
   d="M 3.034,86.053 L 18.381,86.053 C 35.577,86.053 50.764,91.838 50.764,114.097 C 50.764,136.356 35.577,142.14 18.381,142.14 L 3.034,142.14 L 3.034,86.053 z M 14.281,133.301 L 20.551,133.301 C 29.952,133.301 39.033,126.31 39.033,114.097 C 39.033,101.881 29.952,94.893 20.551,94.893 L 14.281,94.893 L 14.281,133.301 z " />
			<path
   style="fill:#ffffff;stroke:#ffffff;stroke-width:6.06710005"
   id="path11"
   d="M 51.404,86.053 L 71.012,86.053 C 78.243,86.053 89.09,88.141 89.09,100.436 C 89.09,107.104 84.59,111.766 77.92,112.973 L 77.92,113.133 C 85.555,113.855 90.778,119 90.778,125.908 C 90.778,140.052 78.081,142.139 71.011,142.139 L 51.404,142.139 L 51.404,86.053 z M 62.654,108.715 L 67.235,108.715 C 71.974,108.715 77.841,107.667 77.841,101.881 C 77.841,95.375 72.136,94.893 66.994,94.893 L 62.653,94.893 L 62.653,108.715 L 62.654,108.715 z M 62.654,133.301 L 67.958,133.301 C 73.181,133.301 79.53,132.017 79.53,125.506 C 79.53,118.194 73.582,117.069 67.958,117.069 L 62.654,117.069 L 62.654,133.301 z " />
			<path
   style="fill:#ffffff;stroke:#ffffff;stroke-width:6.06710005"
   id="path13"
   d="M 114.804,99.794 C 108.455,99.794 104.358,102.606 101.948,106.623 L 101.786,106.623 L 101.786,100.757 L 91.501,100.757 L 91.501,159.014 L 100.539,159.014 C 101.267,158.612 101.867,157.973 102.269,157.027 L 102.269,137.399 L 102.428,137.399 C 106.205,141.979 109.981,143.106 114.563,143.106 C 127.499,143.106 132.16,132.661 132.16,121.329 C 132.16,109.916 127.499,99.794 114.804,99.794 z M 111.831,134.748 C 104.679,134.748 102.347,127.194 102.347,121.328 C 102.347,115.543 105.081,108.15 111.991,108.15 C 118.981,108.15 120.91,115.785 120.91,121.328 C 120.91,127.035 118.901,134.748 111.831,134.748 z " />
			<path
   style="fill:#ffffff;stroke:#ffffff;stroke-width:6.06710005"
   id="path15"
   d="M 100.54,159.014 L 102.27,159.014 L 102.27,157.027 C 101.867,157.973 101.268,158.611 100.54,159.014 z " />
			<path
   style="fill:#ffffff;stroke:#ffffff;stroke-width:6.06710005"
   id="path17"
   d="M 165.748,139.811 C 161.81,141.979 157.31,143.106 151.523,143.106 C 137.865,143.106 129.91,135.23 129.91,121.651 C 129.91,109.678 136.258,99.795 149.114,99.795 C 164.461,99.795 168.801,110.321 168.801,124.786 L 140.195,124.786 C 140.678,131.452 145.339,135.23 152.008,135.23 C 157.229,135.23 161.73,133.301 165.748,131.053 L 165.748,139.811 L 165.748,139.811 z M 158.517,117.393 C 158.194,112.17 155.785,107.667 149.757,107.667 C 143.731,107.667 140.678,111.846 140.195,117.393 L 158.517,117.393 z " />
			<path
   style="fill:#ffffff;stroke:#ffffff;stroke-width:6.06710005"
   id="path19"
   d="M 205.762,81.874 L 196.443,81.874 L 196.443,105.579 L 196.283,105.579 C 193.068,101.641 189.293,99.794 183.909,99.794 C 171.211,99.794 166.551,109.916 166.551,121.328 C 166.551,132.66 171.211,143.105 183.909,143.105 C 188.97,143.105 193.391,141.498 196.604,137.478 L 196.765,137.478 L 196.765,142.139 L 207.211,142.139 L 207.211,83.52 C 206.846,82.777 206.352,82.239 205.762,81.874 z M 186.88,134.748 C 179.811,134.748 177.8,127.035 177.8,121.328 C 177.8,115.785 179.73,108.15 186.721,108.15 C 193.631,108.15 196.364,115.543 196.364,121.328 C 196.363,127.194 194.03,134.748 186.88,134.748 z " />
			<path
   style="fill:#ffffff;stroke:#ffffff;stroke-width:6.06710005"
   id="path21"
   d="M 205.762,81.874 C 206.352,82.239 206.846,82.777 207.211,83.52 L 207.211,81.874 L 205.762,81.874 z " />
			<rect
   style="fill:#ffffff;stroke:#ffffff;stroke-width:6.06710005"
   id="rect23"
   height="41.382999"
   width="10.768"
   y="100.757"
   x="210.505" />
			<rect
   style="fill:#ffffff;stroke:#ffffff;stroke-width:6.06710005"
   id="rect25"
   height="10.287"
   width="10.768"
   y="82.917999"
   x="210.505" />
			<path
   style="fill:#ffffff;stroke:#ffffff;stroke-width:6.06710005"
   id="path27"
   d="M 226.415,102.926 C 230.591,100.999 236.217,99.794 240.797,99.794 C 253.412,99.794 258.638,105.016 258.638,117.231 L 258.638,122.536 C 258.638,126.714 258.719,129.848 258.796,132.902 C 258.878,136.034 259.038,138.925 259.28,142.14 L 249.798,142.14 C 249.396,139.971 249.396,137.241 249.315,135.955 L 249.156,135.955 C 246.666,140.535 241.281,143.105 236.378,143.105 C 229.066,143.105 221.915,138.686 221.915,130.812 C 221.915,124.624 224.888,121.007 228.986,119 C 233.086,116.99 238.388,116.589 242.888,116.589 L 248.834,116.589 C 248.834,109.916 245.861,107.667 239.513,107.667 C 234.933,107.667 230.351,109.438 226.737,112.17 L 226.415,102.926 z M 239.03,135.229 C 242.325,135.229 244.894,133.783 246.583,131.536 C 248.35,129.205 248.834,126.228 248.834,123.016 L 244.173,123.016 C 239.352,123.016 232.201,123.82 232.201,130.167 C 232.201,133.701 235.173,135.229 239.03,135.229 z " />
		</g>
	</g><text
   xml:space="preserve"
   style="font-size:78px;font-style:normal;font-weight:bold;fill:url(#linearGradient4751);fill-opacity:1.0;stroke:none;stroke-width:1px;stroke-linecap:butt;stroke-linejoin:miter;stroke-opacity:1;font-family:Arial"
   x="-2.4250796"
   y="143.048"
   id="text3268"
   inkscape:export-filename="/home/jl/promotion/dl-learner-svn/trunk/resources/logos/text3292.png"
   inkscape:export-xdpi="67.5"
   inkscape:export-ydpi="67.5"><tspan
     sodipodi:role="line"
     id="tspan3270"
     x="-2.4250796"
     y="143.048"
     style="fill-opacity:1.0;fill:url(#linearGradient4751)">D</tspan></text>
<text
   xml:space="preserve"
   style="font-size:78px;font-style:normal;font-weight:bold;fill:url(#linearGradient4761);fill-opacity:1;stroke:none;stroke-width:1px;stroke-linecap:butt;stroke-linejoin:miter;stroke-opacity:1;font-family:Arial"
   x="45.214111"
   y="143.048"
   id="text3272"
   inkscape:export-filename="/home/jl/promotion/dl-learner-svn/trunk/resources/logos/text3292.png"
   inkscape:export-xdpi="67.5"
   inkscape:export-ydpi="67.5"><tspan
     sodipodi:role="line"
     id="tspan3274"
     x="45.214111"
     y="143.048"
     style="fill:url(#linearGradient4761)">B</tspan></text>
<text
   xml:space="preserve"
   style="font-size:78px;font-style:normal;font-weight:bold;fill:url(#linearGradient4763);fill-opacity:1;stroke:none;stroke-width:1px;stroke-linecap:butt;stroke-linejoin:miter;stroke-opacity:1;font-family:Arial"
   x="94.297058"
   y="144.06128"
   id="text3276"
   inkscape:export-filename="/home/jl/promotion/dl-learner-svn/trunk/resources/logos/text3292.png"
   inkscape:export-xdpi="67.5"
   inkscape:export-ydpi="67.5"><tspan
     sodipodi:role="line"
     id="tspan3278"
     x="94.297058"
     y="144.06128"
     style="fill:url(#linearGradient4763)">p</tspan></text>
<text
   xml:space="preserve"
   style="font-size:78px;font-style:normal;font-weight:bold;fill:url(#linearGradient4765);fill-opacity:1;stroke:none;stroke-width:1px;stroke-linecap:butt;stroke-linejoin:miter;stroke-opacity:1;font-family:Arial"
   x="138.39842"
   y="142.13394"
   id="text3280"
   inkscape:export-filename="/home/jl/promotion/dl-learner-svn/trunk/resources/logos/text3292.png"
   inkscape:export-xdpi="67.5"
   inkscape:export-ydpi="67.5"><tspan
     sodipodi:role="line"
     id="tspan3282"
     x="138.39842"
     y="142.13394"
     style="fill:url(#linearGradient4765)">e</tspan></text>
<text
   xml:space="preserve"
   style="font-size:78px;font-style:normal;font-weight:bold;fill:url(#linearGradient4767);fill-opacity:1;stroke:none;stroke-width:1px;stroke-linecap:butt;stroke-linejoin:miter;stroke-opacity:1;font-family:Arial"
   x="176.45079"
   y="142.73395"
   id="text3284"
   inkscape:export-filename="/home/jl/promotion/dl-learner-svn/trunk/resources/logos/text3292.png"
   inkscape:export-xdpi="67.5"
   inkscape:export-ydpi="67.5"><tspan
     sodipodi:role="line"
     id="tspan3286"
     x="176.45079"
     y="142.73395"
     style="fill:url(#linearGradient4767)">d</tspan></text>
<text
   xml:space="preserve"
   style="font-size:78px;font-style:normal;font-weight:bold;fill:url(#linearGradient4769);fill-opacity:1;stroke:none;stroke-width:1px;stroke-linecap:butt;stroke-linejoin:miter;stroke-opacity:1;font-family:Arial"
   x="215.60837"
   y="143.048"
   id="text3288"
   inkscape:export-filename="/home/jl/promotion/dl-learner-svn/trunk/resources/logos/text3292.png"
   inkscape:export-xdpi="67.5"
   inkscape:export-ydpi="67.5"><tspan
     sodipodi:role="line"
     id="tspan3290"
     x="215.60837"
     y="143.048"
     style="fill:url(#linearGradient4769)">i</tspan></text>
<text
   xml:space="preserve"
   style="font-size:78px;font-style:normal;font-weight:bold;fill:url(#linearGradient4771);fill-opacity:1;stroke:none;stroke-width:1px;stroke-linecap:butt;stroke-linejoin:miter;stroke-opacity:1;font-family:Arial"
   x="229.86473"
   y="142.13394"
   id="text3292"
   inkscape:export-xdpi="67.5"
   inkscape:export-ydpi="67.5"><tspan
     sodipodi:role="line"
     id="tspan3294"
     x="229.86473"
     y="142.13394"
     style="fill:url(#linearGradient4771)">a</tspan></text>
</svg>